<?xml version="1.0" encoding="UTF-8"?>
<svg width="24px" height="24px" fill="#673ab7" version="1.1" viewBox="0 0 24 24" xmlns="http://www.w3.org/2000/svg" xmlns:cc="http://creativecommons.org/ns#" xmlns:dc="http://purl.org/dc/elements/1.1/" xmlns:rdf="http://www.w3.org/1999/02/22-rdf-syntax-ns#">
 <metadata>
  <rdf:RDF>
   <cc:Work rdf:about="">
    <dc:format>image/svg+xml</dc:format>
    <dc:type rdf:resource="http://purl.org/dc/dcmitype/StillImage"/>
    <dc:title/>
   </cc:Work>
  </rdf:RDF>
 </metadata>
 <rect width="24" height="24" fill="#673ab7"/>
 <path d="M0 0h24v24H0V0z" fill="none"/>
 <g>
  <path d="m12 1-6 6 6 6 1.4102-1.4102-1.4102-1.4199-2.1699-2.1699h4.1699c1.65 0 3 1.35 3 3h2c0-2.76-2.24-5-5-5h-4.1699l3.5801-3.5801z" fill="#fcfcfc"/>
  <rect x="7" y="10" width="2" height="11" fill="#fff" stroke-width="1.2536"/>
  <path d="m17 11c0 1.65-1.35 3-3 3h-7v2h7c2.76 0 5-2.24 5-5z" fill="#fff"/>
  <path d="m16.451-10.047h-9.17l3.58-3.58-1.41-1.42-6 6 6 6 1.41-1.41-1.41-1.42-2.17-2.17h9.17c1.65 0 3 1.35 3 3v4h2v-4c0-2.76-2.24-5-5-5z" fill="#000"/>
 </g>
 <g fill="#673ab7">
  <path d="m10 12 2-2h2v4h-4z"/>
  <path d="m10 2 2 2h2v-4h-4z"/>
  <path d="m10 11-1 1-3-3 1-1z"/>
 </g>
</svg>
